<svg width="568" height="386" viewBox="0 0 568 386" fill="none" xmlns="http://www.w3.org/2000/svg">
<g opacity="0.2">
<path d="M351.306 85.3251C349.081 85.3251 347.277 83.5209 347.277 81.2967C347.277 79.0724 349.081 77.2683 351.305 77.2683C353.53 77.2683 355.334 79.0724 355.334 81.2967C355.334 83.4962 353.53 85.3251 351.306 85.3251Z" fill="url(#paint0_linear_3_367)"/>
<path d="M259.987 80.6046L259.987 81.9392L348.958 81.9392L348.958 80.6046L259.987 80.6046Z" fill="url(#paint1_linear_3_367)"/>
<path d="M241.748 268.061C239.523 268.061 237.719 266.257 237.719 264.033C237.719 261.809 239.523 260.005 241.748 260.005C243.972 260.005 245.776 261.809 245.776 264.033C245.776 266.257 243.972 268.061 241.748 268.061Z" fill="url(#paint2_linear_3_367)"/>
<path d="M150.429 263.366L150.429 264.7L239.424 264.7L239.424 263.366L150.429 263.366Z" fill="url(#paint3_linear_3_367)"/>
<path d="M147.068 217.991C144.843 217.991 143.039 216.186 143.039 213.962C143.039 211.738 144.843 209.934 147.068 209.934C149.292 209.934 151.096 211.738 151.096 213.962C151.096 216.186 149.292 217.991 147.068 217.991Z" fill="url(#paint4_linear_3_367)"/>
<path d="M55.7489 213.27L55.7489 214.605L144.72 214.605L144.72 213.27L55.7489 213.27Z" fill="url(#paint5_linear_3_367)"/>
<path d="M167.506 177.756C165.282 177.756 163.478 175.952 163.478 173.728C163.478 171.503 165.282 169.699 167.506 169.699C169.731 169.699 171.535 171.503 171.535 173.728C171.559 175.927 169.755 177.756 167.506 177.756Z" fill="url(#paint6_linear_3_367)"/>
<path d="M76.2122 173.036L76.2122 174.37L165.208 174.37L165.208 173.036L76.2122 173.036Z" fill="url(#paint7_linear_3_367)"/>
<path d="M397.249 112.115C395.025 112.115 393.221 110.311 393.221 108.087C393.221 105.862 395.025 104.058 397.249 104.058C399.473 104.058 401.278 105.862 401.278 108.087C401.278 110.311 399.473 112.115 397.249 112.115Z" fill="url(#paint8_linear_3_367)"/>
<path d="M305.93 107.395L305.93 108.729L394.901 108.729L394.901 107.395L305.93 107.395Z" fill="url(#paint9_linear_3_367)"/>
<path d="M138.121 49.7614C135.897 49.7614 134.093 47.9572 134.093 45.733C134.093 43.5087 135.897 41.7046 138.121 41.7046C140.345 41.7046 142.15 43.5087 142.15 45.733C142.15 47.9572 140.345 49.7614 138.121 49.7614Z" fill="url(#paint10_linear_3_367)"/>
<path d="M46.8271 45.0657L46.8271 46.4003L135.798 46.4003L135.798 45.0657L46.8271 45.0657Z" fill="url(#paint11_linear_3_367)"/>
<path d="M134.167 160.95C131.943 160.95 130.139 159.146 130.139 156.922C130.139 154.698 131.943 152.893 134.167 152.893C136.391 152.893 138.195 154.698 138.195 156.922C138.195 159.146 136.391 160.95 134.167 160.95Z" fill="url(#paint12_linear_3_367)"/>
<path d="M87.3584 156.23L87.3584 157.564L131.844 157.564L131.844 156.23L87.3584 156.23Z" fill="url(#paint13_linear_3_367)"/>
<path d="M357.83 9.00769C355.606 9.00769 353.802 7.20354 353.802 4.97927C353.802 2.755 355.606 0.950851 357.83 0.950851C360.054 0.950851 361.858 2.755 361.858 4.97927C361.858 7.17883 360.054 9.00769 357.83 9.00769Z" fill="url(#paint14_linear_3_367)"/>
<path d="M310.997 4.28728L310.997 5.62183L355.482 5.62182L355.482 4.28728L310.997 4.28728Z" fill="url(#paint15_linear_3_367)"/>
<path d="M46.9754 295.717C44.7511 295.717 42.947 293.912 42.947 291.688C42.947 289.464 44.7511 287.66 46.9754 287.66C49.1996 287.66 51.0038 289.464 51.0038 291.688C51.0038 293.888 49.1996 295.717 46.9754 295.717Z" fill="url(#paint16_linear_3_367)"/>
<path d="M0.166748 290.996L0.166748 292.331L44.6522 292.331L44.6522 290.996L0.166748 290.996Z" fill="url(#paint17_linear_3_367)"/>
<path d="M122.106 240.777C119.882 240.777 118.078 238.973 118.078 236.749C118.078 234.524 119.882 232.72 122.106 232.72C124.331 232.72 126.135 234.524 126.135 236.749C126.135 238.973 124.331 240.777 122.106 240.777Z" fill="url(#paint18_linear_3_367)"/>
<path d="M75.2731 236.057L75.2731 237.391L119.759 237.391L119.759 236.057L75.2731 236.057Z" fill="url(#paint19_linear_3_367)"/>
<path d="M60.4693 110.533C58.2451 110.533 56.4409 108.729 56.4409 106.505C56.4409 104.281 58.2451 102.477 60.4693 102.477C62.6936 102.477 64.4977 104.281 64.4977 106.505C64.5225 108.705 62.6936 110.533 60.4693 110.533Z" fill="url(#paint20_linear_3_367)"/>
<path d="M13.6607 105.813L13.6607 107.148L58.1462 107.148L58.1462 105.813L13.6607 105.813Z" fill="url(#paint21_linear_3_367)"/>
<path d="M386.029 166.585C383.805 166.585 382 164.781 382 162.557C382 160.333 383.805 158.528 386.029 158.528C388.253 158.528 390.057 160.333 390.057 162.557C390.057 164.781 388.253 166.585 386.029 166.585Z" fill="url(#paint22_linear_3_367)"/>
<path d="M294.71 161.889L294.71 163.224L383.706 163.224L383.706 161.889L294.71 161.889Z" fill="url(#paint23_linear_3_367)"/>
<path d="M224.992 303.18C222.767 303.18 220.963 301.376 220.963 299.152C220.963 296.928 222.767 295.123 224.992 295.123C227.216 295.123 229.02 296.928 229.02 299.152C229.02 301.376 227.216 303.18 224.992 303.18Z" fill="url(#paint24_linear_3_367)"/>
<path d="M133.697 298.46L133.697 299.794L222.668 299.794L222.668 298.46L133.697 298.46Z" fill="url(#paint25_linear_3_367)"/>
<path d="M338.8 50.651C336.576 50.651 334.772 48.8469 334.772 46.6226C334.772 44.3983 336.576 42.5942 338.8 42.5942C341.024 42.5942 342.829 44.3983 342.829 46.6226C342.853 48.8469 341.049 50.651 338.8 50.651Z" fill="url(#paint26_linear_3_367)"/>
<path d="M247.506 45.9554L247.506 47.2899L336.502 47.2899L336.502 45.9554L247.506 45.9554Z" fill="url(#paint27_linear_3_367)"/>
<path d="M193.481 385.503C191.257 385.503 189.453 383.699 189.453 381.475C189.453 379.25 191.257 377.446 193.481 377.446C195.705 377.446 197.509 379.25 197.509 381.475C197.509 383.699 195.705 385.503 193.481 385.503Z" fill="url(#paint28_linear_3_367)"/>
<path d="M102.162 380.808L102.162 382.142L191.158 382.142L191.158 380.808L102.162 380.808Z" fill="url(#paint29_linear_3_367)"/>
<path d="M562.982 244.805C560.758 244.805 558.954 243.001 558.954 240.777C558.954 238.553 560.758 236.749 562.982 236.749C565.206 236.749 567.011 238.553 567.011 240.777C567.035 243.001 565.206 244.805 562.982 244.805Z" fill="url(#paint30_linear_3_367)"/>
<path d="M253.635 240.11L253.635 241.444L560.659 241.444L560.659 240.11L253.635 240.11Z" fill="url(#paint31_linear_3_367)"/>
<path d="M546.671 336.124C544.447 336.124 542.642 334.32 542.642 332.096C542.642 329.872 544.447 328.067 546.671 328.067C548.895 328.067 550.699 329.872 550.699 332.096C550.724 334.32 548.92 336.124 546.671 336.124Z" fill="url(#paint32_linear_3_367)"/>
<path d="M73.0983 331.404L73.0983 332.738L544.372 332.738L544.372 331.404L73.0983 331.404Z" fill="url(#paint33_linear_3_367)"/>
<path d="M387.19 73.9812C384.966 73.9812 383.162 72.1771 383.162 69.9528C383.162 67.7285 384.966 65.9244 387.19 65.9244C389.415 65.9244 391.219 67.7285 391.219 69.9528C391.219 72.1771 389.415 73.9812 387.19 73.9812Z" fill="url(#paint34_linear_3_367)"/>
<path d="M77.8434 69.2856L77.8434 70.6201L384.867 70.6201L384.867 69.2856L77.8434 69.2856Z" fill="url(#paint35_linear_3_367)"/>
<path d="M477.175 182.501C474.951 182.501 473.146 180.697 473.146 178.473C473.146 176.248 474.951 174.444 477.175 174.444C479.399 174.444 481.203 176.248 481.203 178.473C481.228 180.697 479.399 182.501 477.175 182.501Z" fill="url(#paint36_linear_3_367)"/>
<path d="M167.852 177.781L167.852 179.115L474.876 179.115L474.876 177.781L167.852 177.781Z" fill="url(#paint37_linear_3_367)"/>
<path d="M452.436 346.751C450.212 346.751 448.407 344.947 448.407 342.723C448.407 340.499 450.212 338.695 452.436 338.695C454.66 338.695 456.464 340.499 456.464 342.723C456.464 344.947 454.66 346.751 452.436 346.751Z" fill="url(#paint38_linear_3_367)"/>
<path d="M143.089 342.056L143.089 343.39L450.113 343.39L450.113 342.056L143.089 342.056Z" fill="url(#paint39_linear_3_367)"/>
<path d="M239.029 97.2125C236.805 97.2125 235.001 95.4084 235.001 93.1841C235.001 90.9598 236.805 89.1557 239.029 89.1557C241.253 89.1557 243.058 90.9598 243.058 93.1841C243.082 95.4084 241.278 97.2125 239.029 97.2125Z" fill="url(#paint40_linear_3_367)"/>
<path d="M66.8456 92.4921L66.8456 93.8267L236.706 93.8267L236.706 92.4921L66.8456 92.4921Z" fill="url(#paint41_linear_3_367)"/>
<path d="M329.483 276.489C327.259 276.489 325.454 274.685 325.454 272.461C325.454 270.236 327.259 268.432 329.483 268.432C331.707 268.432 333.511 270.236 333.511 272.461C333.511 274.685 331.707 276.489 329.483 276.489Z" fill="url(#paint42_linear_3_367)"/>
<path d="M157.299 271.769L157.299 273.103L327.16 273.103L327.16 271.769L157.299 271.769Z" fill="url(#paint43_linear_3_367)"/>
</g>
<defs>
<linearGradient id="paint0_linear_3_367" x1="328.624" y1="81.2791" x2="258.604" y2="81.2791" gradientUnits="userSpaceOnUse">
<stop stop-color="#A4FFFF"/>
<stop offset="1" stop-color="#A4FFFF" stop-opacity="0"/>
</linearGradient>
<linearGradient id="paint1_linear_3_367" x1="328.623" y1="81.2766" x2="258.605" y2="81.2766" gradientUnits="userSpaceOnUse">
<stop stop-color="#A4FFFF"/>
<stop offset="1" stop-color="#A4FFFF" stop-opacity="0"/>
</linearGradient>
<linearGradient id="paint2_linear_3_367" x1="219.064" y1="264.033" x2="149.023" y2="264.033" gradientUnits="userSpaceOnUse">
<stop stop-color="#A4FFFF"/>
<stop offset="1" stop-color="#A4FFFF" stop-opacity="0"/>
</linearGradient>
<linearGradient id="paint3_linear_3_367" x1="219.072" y1="264.034" x2="149.05" y2="264.034" gradientUnits="userSpaceOnUse">
<stop stop-color="#A4FFFF"/>
<stop offset="1" stop-color="#A4FFFF" stop-opacity="0"/>
</linearGradient>
<linearGradient id="paint4_linear_3_367" x1="124.393" y1="213.946" x2="54.3732" y2="213.946" gradientUnits="userSpaceOnUse">
<stop stop-color="#A4FFFF"/>
<stop offset="1" stop-color="#A4FFFF" stop-opacity="0"/>
</linearGradient>
<linearGradient id="paint5_linear_3_367" x1="124.392" y1="213.946" x2="54.3741" y2="213.946" gradientUnits="userSpaceOnUse">
<stop stop-color="#A4FFFF"/>
<stop offset="1" stop-color="#A4FFFF" stop-opacity="0"/>
</linearGradient>
<linearGradient id="paint6_linear_3_367" x1="144.842" y1="173.709" x2="74.8202" y2="173.709" gradientUnits="userSpaceOnUse">
<stop stop-color="#A4FFFF"/>
<stop offset="1" stop-color="#A4FFFF" stop-opacity="0"/>
</linearGradient>
<linearGradient id="paint7_linear_3_367" x1="144.843" y1="173.709" x2="74.8235" y2="173.709" gradientUnits="userSpaceOnUse">
<stop stop-color="#A4FFFF"/>
<stop offset="1" stop-color="#A4FFFF" stop-opacity="0"/>
</linearGradient>
<linearGradient id="paint8_linear_3_367" x1="374.577" y1="108.072" x2="304.576" y2="108.072" gradientUnits="userSpaceOnUse">
<stop stop-color="#A4FFFF"/>
<stop offset="1" stop-color="#A4FFFF" stop-opacity="0"/>
</linearGradient>
<linearGradient id="paint9_linear_3_367" x1="374.571" y1="108.071" x2="304.553" y2="108.071" gradientUnits="userSpaceOnUse">
<stop stop-color="#A4FFFF"/>
<stop offset="1" stop-color="#A4FFFF" stop-opacity="0"/>
</linearGradient>
<linearGradient id="paint10_linear_3_367" x1="115.449" y1="45.732" x2="45.4292" y2="45.732" gradientUnits="userSpaceOnUse">
<stop stop-color="#A4FFFF"/>
<stop offset="1" stop-color="#A4FFFF" stop-opacity="0"/>
</linearGradient>
<linearGradient id="paint11_linear_3_367" x1="115.447" y1="45.733" x2="45.4297" y2="45.733" gradientUnits="userSpaceOnUse">
<stop stop-color="#A4FFFF"/>
<stop offset="1" stop-color="#A4FFFF" stop-opacity="0"/>
</linearGradient>
<linearGradient id="paint12_linear_3_367" x1="111.498" y1="156.911" x2="41.4785" y2="156.911" gradientUnits="userSpaceOnUse">
<stop stop-color="#A4FFFF"/>
<stop offset="1" stop-color="#A4FFFF" stop-opacity="0"/>
</linearGradient>
<linearGradient id="paint13_linear_3_367" x1="121.674" y1="156.909" x2="86.6646" y2="156.909" gradientUnits="userSpaceOnUse">
<stop stop-color="#A4FFFF"/>
<stop offset="1" stop-color="#A4FFFF" stop-opacity="0"/>
</linearGradient>
<linearGradient id="paint14_linear_3_367" x1="335.148" y1="4.96074" x2="265.128" y2="4.96074" gradientUnits="userSpaceOnUse">
<stop stop-color="#A4FFFF"/>
<stop offset="1" stop-color="#A4FFFF" stop-opacity="0"/>
</linearGradient>
<linearGradient id="paint15_linear_3_367" x1="345.324" y1="4.96073" x2="310.314" y2="4.96073" gradientUnits="userSpaceOnUse">
<stop stop-color="#A4FFFF"/>
<stop offset="1" stop-color="#A4FFFF" stop-opacity="0"/>
</linearGradient>
<linearGradient id="paint16_linear_3_367" x1="24.3058" y1="291.668" x2="-45.7141" y2="291.668" gradientUnits="userSpaceOnUse">
<stop stop-color="#A4FFFF"/>
<stop offset="1" stop-color="#A4FFFF" stop-opacity="0"/>
</linearGradient>
<linearGradient id="paint17_linear_3_367" x1="34.4821" y1="291.669" x2="-0.52772" y2="291.669" gradientUnits="userSpaceOnUse">
<stop stop-color="#A4FFFF"/>
<stop offset="1" stop-color="#A4FFFF" stop-opacity="0"/>
</linearGradient>
<linearGradient id="paint18_linear_3_367" x1="99.4176" y1="236.732" x2="29.3764" y2="236.732" gradientUnits="userSpaceOnUse">
<stop stop-color="#A4FFFF"/>
<stop offset="1" stop-color="#A4FFFF" stop-opacity="0"/>
</linearGradient>
<linearGradient id="paint19_linear_3_367" x1="109.602" y1="236.732" x2="74.5922" y2="236.732" gradientUnits="userSpaceOnUse">
<stop stop-color="#A4FFFF"/>
<stop offset="1" stop-color="#A4FFFF" stop-opacity="0"/>
</linearGradient>
<linearGradient id="paint20_linear_3_367" x1="37.802" y1="106.486" x2="-32.2179" y2="106.486" gradientUnits="userSpaceOnUse">
<stop stop-color="#A4FFFF"/>
<stop offset="1" stop-color="#A4FFFF" stop-opacity="0"/>
</linearGradient>
<linearGradient id="paint21_linear_3_367" x1="47.9771" y1="106.483" x2="12.971" y2="106.483" gradientUnits="userSpaceOnUse">
<stop stop-color="#A4FFFF"/>
<stop offset="1" stop-color="#A4FFFF" stop-opacity="0"/>
</linearGradient>
<linearGradient id="paint22_linear_3_367" x1="363.354" y1="162.546" x2="293.335" y2="162.546" gradientUnits="userSpaceOnUse">
<stop stop-color="#A4FFFF"/>
<stop offset="1" stop-color="#A4FFFF" stop-opacity="0"/>
</linearGradient>
<linearGradient id="paint23_linear_3_367" x1="363.355" y1="162.547" x2="293.335" y2="162.547" gradientUnits="userSpaceOnUse">
<stop stop-color="#A4FFFF"/>
<stop offset="1" stop-color="#A4FFFF" stop-opacity="0"/>
</linearGradient>
<linearGradient id="paint24_linear_3_367" x1="202.318" y1="299.139" x2="132.298" y2="299.139" gradientUnits="userSpaceOnUse">
<stop stop-color="#A4FFFF"/>
<stop offset="1" stop-color="#A4FFFF" stop-opacity="0"/>
</linearGradient>
<linearGradient id="paint25_linear_3_367" x1="202.318" y1="299.14" x2="132.301" y2="299.14" gradientUnits="userSpaceOnUse">
<stop stop-color="#A4FFFF"/>
<stop offset="1" stop-color="#A4FFFF" stop-opacity="0"/>
</linearGradient>
<linearGradient id="paint26_linear_3_367" x1="316.131" y1="46.6164" x2="246.09" y2="46.6164" gradientUnits="userSpaceOnUse">
<stop stop-color="#A4FFFF"/>
<stop offset="1" stop-color="#A4FFFF" stop-opacity="0"/>
</linearGradient>
<linearGradient id="paint27_linear_3_367" x1="316.137" y1="46.6152" x2="246.119" y2="46.6152" gradientUnits="userSpaceOnUse">
<stop stop-color="#A4FFFF"/>
<stop offset="1" stop-color="#A4FFFF" stop-opacity="0"/>
</linearGradient>
<linearGradient id="paint28_linear_3_367" x1="170.798" y1="381.467" x2="100.778" y2="381.467" gradientUnits="userSpaceOnUse">
<stop stop-color="#A4FFFF"/>
<stop offset="1" stop-color="#A4FFFF" stop-opacity="0"/>
</linearGradient>
<linearGradient id="paint29_linear_3_367" x1="170.798" y1="381.466" x2="100.778" y2="381.466" gradientUnits="userSpaceOnUse">
<stop stop-color="#A4FFFF"/>
<stop offset="1" stop-color="#A4FFFF" stop-opacity="0"/>
</linearGradient>
<linearGradient id="paint30_linear_3_367" x1="523.497" y1="240.769" x2="398.798" y2="240.769" gradientUnits="userSpaceOnUse">
<stop stop-color="#A4FFFF"/>
<stop offset="1" stop-color="#A4FFFF" stop-opacity="0"/>
</linearGradient>
<linearGradient id="paint31_linear_3_367" x1="492.294" y1="240.767" x2="262.906" y2="240.767" gradientUnits="userSpaceOnUse">
<stop stop-color="#A4FFFF"/>
<stop offset="1" stop-color="#A4FFFF" stop-opacity="0"/>
</linearGradient>
<linearGradient id="paint32_linear_3_367" x1="507.191" y1="332.082" x2="382.493" y2="332.082" gradientUnits="userSpaceOnUse">
<stop stop-color="#A4FFFF"/>
<stop offset="1" stop-color="#A4FFFF" stop-opacity="0"/>
</linearGradient>
<linearGradient id="paint33_linear_3_367" x1="439.412" y1="332.081" x2="87.3109" y2="332.081" gradientUnits="userSpaceOnUse">
<stop stop-color="#A4FFFF"/>
<stop offset="1" stop-color="#A4FFFF" stop-opacity="0"/>
</linearGradient>
<linearGradient id="paint34_linear_3_367" x1="347.701" y1="69.9548" x2="223.002" y2="69.9548" gradientUnits="userSpaceOnUse">
<stop stop-color="#A4FFFF"/>
<stop offset="1" stop-color="#A4FFFF" stop-opacity="0"/>
</linearGradient>
<linearGradient id="paint35_linear_3_367" x1="316.498" y1="69.9536" x2="87.11" y2="69.9536" gradientUnits="userSpaceOnUse">
<stop stop-color="#A4FFFF"/>
<stop offset="1" stop-color="#A4FFFF" stop-opacity="0"/>
</linearGradient>
<linearGradient id="paint36_linear_3_367" x1="437.69" y1="178.458" x2="312.991" y2="178.458" gradientUnits="userSpaceOnUse">
<stop stop-color="#A4FFFF"/>
<stop offset="1" stop-color="#A4FFFF" stop-opacity="0"/>
</linearGradient>
<linearGradient id="paint37_linear_3_367" x1="406.485" y1="178.457" x2="177.099" y2="178.457" gradientUnits="userSpaceOnUse">
<stop stop-color="#A4FFFF"/>
<stop offset="1" stop-color="#A4FFFF" stop-opacity="0"/>
</linearGradient>
<linearGradient id="paint38_linear_3_367" x1="412.947" y1="342.716" x2="288.247" y2="342.716" gradientUnits="userSpaceOnUse">
<stop stop-color="#A4FFFF"/>
<stop offset="1" stop-color="#A4FFFF" stop-opacity="0"/>
</linearGradient>
<linearGradient id="paint39_linear_3_367" x1="381.744" y1="342.716" x2="152.356" y2="342.716" gradientUnits="userSpaceOnUse">
<stop stop-color="#A4FFFF"/>
<stop offset="1" stop-color="#A4FFFF" stop-opacity="0"/>
</linearGradient>
<linearGradient id="paint40_linear_3_367" x1="199.536" y1="93.1727" x2="74.7987" y2="93.1728" gradientUnits="userSpaceOnUse">
<stop stop-color="#A4FFFF"/>
<stop offset="1" stop-color="#A4FFFF" stop-opacity="0"/>
</linearGradient>
<linearGradient id="paint41_linear_3_367" x1="198.89" y1="93.1727" x2="71.9752" y2="93.1727" gradientUnits="userSpaceOnUse">
<stop stop-color="#A4FFFF"/>
<stop offset="1" stop-color="#A4FFFF" stop-opacity="0"/>
</linearGradient>
<linearGradient id="paint42_linear_3_367" x1="289.995" y1="272.448" x2="165.334" y2="272.448" gradientUnits="userSpaceOnUse">
<stop stop-color="#A4FFFF"/>
<stop offset="1" stop-color="#A4FFFF" stop-opacity="0"/>
</linearGradient>
<linearGradient id="paint43_linear_3_367" x1="289.325" y1="272.448" x2="162.411" y2="272.448" gradientUnits="userSpaceOnUse">
<stop stop-color="#A4FFFF"/>
<stop offset="1" stop-color="#A4FFFF" stop-opacity="0"/>
</linearGradient>
</defs>
</svg>
